<svg width="20" height="5" viewBox="0 0 20 5" fill="none" xmlns="http://www.w3.org/2000/svg">
<path d="M10 4.5C11.1046 4.5 12 3.60457 12 2.5C12 1.39543 11.1046 0.5 10 0.5C8.89543 0.5 8 1.39543 8 2.5C8 3.60457 8.89543 4.5 10 4.5Z" fill="#565E7C"/>
<path d="M2 4.5C3.10457 4.5 4 3.60457 4 2.5C4 1.39543 3.10457 0.5 2 0.5C0.89543 0.5 0 1.39543 0 2.5C0 3.60457 0.89543 4.5 2 4.5Z" fill="#565E7C"/>
<path d="M18 4.5C19.1046 4.5 20 3.60457 20 2.5C20 1.39543 19.1046 0.5 18 0.5C16.8954 0.5 16 1.39543 16 2.5C16 3.60457 16.8954 4.5 18 4.5Z" fill="#565E7C"/>
</svg>
