<svg width="10" height="5" viewBox="0 0 10 5" fill="none" xmlns="http://www.w3.org/2000/svg">
<path d="M9.01516 4.23483L5.26516 0.48483C5.19484 0.414507 5.09946 0.375 5 0.375C4.90055 0.375 4.80517 0.414507 4.73484 0.48483L0.984842 4.23483C0.932396 4.28727 0.896678 4.35409 0.882207 4.42683C0.867736 4.49958 0.875161 4.57498 0.903544 4.6435C0.931927 4.71202 0.979992 4.77059 1.04166 4.81179C1.10333 4.853 1.17583 4.87499 1.25 4.87499H8.75C8.82417 4.87499 8.89667 4.853 8.95834 4.81179C9.02001 4.77059 9.06808 4.71202 9.09646 4.6435C9.12484 4.57498 9.13227 4.49958 9.1178 4.42683C9.10333 4.35409 9.06761 4.28727 9.01516 4.23483Z" fill="#ABB0C5"/>
</svg>
