<svg width="10" height="5" viewBox="0 0 10 5" fill="none" xmlns="http://www.w3.org/2000/svg">
<path d="M9.09646 0.356491C9.06808 0.287969 9.02001 0.229403 8.95834 0.188198C8.89667 0.146993 8.82417 0.125 8.75 0.125H1.25C1.17583 0.125 1.10333 0.146993 1.04166 0.1882C0.979991 0.229406 0.931926 0.287974 0.903544 0.356498C0.875161 0.425021 0.867736 0.500422 0.882207 0.573166C0.896678 0.645909 0.932395 0.712728 0.984842 0.765172L4.73484 4.51516C4.76966 4.54998 4.811 4.57761 4.8565 4.59645C4.90199 4.6153 4.95076 4.625 5 4.625C5.04925 4.625 5.09801 4.6153 5.14351 4.59645C5.189 4.57761 5.23034 4.54998 5.26516 4.51516L9.01516 0.765172C9.06761 0.712727 9.10333 0.645907 9.1178 0.573162C9.13227 0.500418 9.12484 0.425016 9.09646 0.356491Z" fill="#ABB0C5"/>
</svg>
